<svg width="111" height="27" viewBox="0 0 111 27" fill="none" xmlns="http://www.w3.org/2000/svg">
<path d="M11 13H13.75C14.4793 13 15.1788 13.2634 15.6945 13.7322C16.2103 14.2011 16.5 14.837 16.5 15.5V18H11V13ZM5.5 8H11V13H5.5V8ZM5.5 3H8.25C8.61113 3 8.96873 3.06466 9.30238 3.1903C9.63602 3.31594 9.93918 3.50009 10.1945 3.73223C10.7103 4.20107 11 4.83696 11 5.5V8H5.5V3ZM16.5 5.5C16.5 5.1717 16.5711 4.84661 16.7093 4.54329C16.8475 4.23998 17.0501 3.96438 17.3055 3.73223C17.8212 3.26339 18.5207 3 19.25 3C19.9793 3 20.6788 3.26339 21.1945 3.73223C21.7103 4.20107 22 4.83696 22 5.5C22 6.16304 21.7103 6.79893 21.1945 7.26777C20.6788 7.73661 19.9793 8 19.25 8C18.8889 8 18.5313 7.93534 18.1976 7.8097C17.864 7.68406 17.5608 7.49991 17.3055 7.26777C17.0501 7.03562 16.8475 6.76002 16.7093 6.45671C16.5711 6.15339 16.5 5.8283 16.5 5.5ZM11 18H16.5V20.5C16.5 21.163 16.2103 21.7989 15.6945 22.2678C15.1788 22.7366 14.4793 23 13.75 23H11V18ZM5.5 18H11V23H5.5V18ZM0 18H5.5V23H2.75C2.38886 23 2.03127 22.9353 1.69762 22.8097C1.36398 22.6841 1.06082 22.4999 0.805456 22.2678C0.550095 22.0356 0.347532 21.76 0.209331 21.4567C0.0711309 21.1534 0 20.8283 0 20.5L0 18ZM0 13H5.5V18H0V13ZM0 8H5.5V13H0V8ZM0 5.5C0 5.1717 0.0711309 4.84661 0.209331 4.54329C0.347532 4.23998 0.550095 3.96438 0.805456 3.73223C1.32118 3.26339 2.02065 3 2.75 3H5.5V8H0V5.5Z" fill="black"/>
<path d="M25.653 19V5.605H30.954C32.3853 5.605 33.4873 5.94067 34.26 6.612C35.0327 7.28333 35.419 8.23967 35.419 9.481C35.419 10.2663 35.2417 10.9503 34.887 11.533C34.545 12.103 34.0383 12.54 33.367 12.844C32.6957 13.1353 31.8913 13.281 30.954 13.281L31.144 13.034H31.524C32.018 13.034 32.4487 13.1607 32.816 13.414C33.1833 13.6673 33.519 14.0727 33.823 14.63L36.179 19H34.469L32.151 14.706C31.961 14.3513 31.7457 14.0727 31.505 13.87C31.277 13.6673 31.011 13.528 30.707 13.452C30.4157 13.376 30.061 13.338 29.643 13.338H27.211V19H25.653ZM27.211 12.103H30.726C31.7647 12.103 32.55 11.8877 33.082 11.457C33.614 11.0137 33.88 10.355 33.88 9.481C33.88 8.63233 33.614 7.99267 33.082 7.562C32.55 7.11867 31.7647 6.897 30.726 6.897H27.211V12.103ZM42.1109 19.171C41.1355 19.171 40.2932 18.981 39.5839 18.601C38.8872 18.2083 38.3425 17.6573 37.9499 16.948C37.5699 16.2387 37.3799 15.39 37.3799 14.402C37.3799 13.4393 37.5699 12.6033 37.9499 11.894C38.3299 11.172 38.8492 10.6083 39.5079 10.203C40.1792 9.79767 40.9519 9.595 41.8259 9.595C42.6619 9.595 43.3775 9.77867 43.9729 10.146C44.5682 10.5133 45.0242 11.0327 45.3409 11.704C45.6702 12.3753 45.8349 13.1797 45.8349 14.117V14.706H38.5579V13.699H44.8089L44.5049 13.946C44.5049 12.9327 44.2769 12.1473 43.8209 11.59C43.3775 11.02 42.7252 10.735 41.8639 10.735C41.2179 10.735 40.6669 10.887 40.2109 11.191C39.7675 11.4823 39.4319 11.894 39.2039 12.426C38.9759 12.9453 38.8619 13.5533 38.8619 14.25V14.364C38.8619 15.1367 38.9822 15.789 39.2229 16.321C39.4762 16.853 39.8499 17.2583 40.3439 17.537C40.8379 17.803 41.4269 17.936 42.1109 17.936C42.6555 17.936 43.1812 17.8537 43.6879 17.689C44.2072 17.5117 44.6949 17.2267 45.1509 16.834L45.6829 17.917C45.2649 18.297 44.7329 18.601 44.0869 18.829C43.4409 19.057 42.7822 19.171 42.1109 19.171ZM51.1782 19.171C50.6968 19.171 50.2282 19.1203 49.7722 19.019C49.3288 18.9303 48.9108 18.8037 48.5182 18.639C48.1382 18.4617 47.8088 18.2527 47.5302 18.012L48.0242 16.929C48.3282 17.1697 48.6575 17.3723 49.0122 17.537C49.3668 17.689 49.7278 17.803 50.0952 17.879C50.4625 17.955 50.8362 17.993 51.2162 17.993C51.9382 17.993 52.4828 17.86 52.8502 17.594C53.2175 17.328 53.4012 16.967 53.4012 16.511C53.4012 16.1563 53.2808 15.8777 53.0402 15.675C52.7995 15.4597 52.4195 15.295 51.9002 15.181L50.1712 14.801C49.3732 14.6363 48.7778 14.3513 48.3852 13.946C48.0052 13.5407 47.8152 13.015 47.8152 12.369C47.8152 11.799 47.9608 11.3113 48.2522 10.906C48.5562 10.488 48.9805 10.165 49.5252 9.937C50.0698 9.709 50.7032 9.595 51.4252 9.595C51.8558 9.595 52.2675 9.63933 52.6602 9.728C53.0528 9.81667 53.4202 9.94967 53.7622 10.127C54.1168 10.2917 54.4208 10.5007 54.6742 10.754L54.1612 11.837C53.9205 11.609 53.6482 11.419 53.3442 11.267C53.0402 11.1023 52.7235 10.982 52.3942 10.906C52.0775 10.8173 51.7545 10.773 51.4252 10.773C50.7158 10.773 50.1775 10.9123 49.8102 11.191C49.4428 11.4697 49.2592 11.837 49.2592 12.293C49.2592 12.6477 49.3732 12.939 49.6012 13.167C49.8292 13.395 50.1838 13.5597 50.6652 13.661L52.3942 14.022C53.2175 14.1993 53.8318 14.4843 54.2372 14.877C54.6552 15.257 54.8642 15.7763 54.8642 16.435C54.8642 16.9923 54.7122 17.48 54.4082 17.898C54.1042 18.3033 53.6735 18.62 53.1162 18.848C52.5715 19.0633 51.9255 19.171 51.1782 19.171ZM60.4776 19.171C59.7303 19.171 59.1096 19.038 58.6156 18.772C58.1343 18.4933 57.767 18.0817 57.5136 17.537C57.273 16.9923 57.1526 16.3147 57.1526 15.504V9.766H58.6916V15.485C58.6916 16.0297 58.7613 16.4857 58.9006 16.853C59.0526 17.2077 59.287 17.4737 59.6036 17.651C59.9203 17.8157 60.313 17.898 60.7816 17.898C61.3136 17.898 61.776 17.7777 62.1686 17.537C62.5613 17.2963 62.8716 16.9607 63.0996 16.53C63.3276 16.0993 63.4416 15.5927 63.4416 15.01V9.766H64.9806V19H63.4796V16.872H63.7266C63.4733 17.6193 63.0553 18.1893 62.4726 18.582C61.9026 18.9747 61.2376 19.171 60.4776 19.171ZM67.898 19V9.766H69.399V11.818H69.19C69.342 11.3493 69.5637 10.9503 69.855 10.621C70.159 10.279 70.5137 10.0257 70.919 9.861C71.337 9.68367 71.793 9.595 72.287 9.595C73.0723 9.595 73.7057 9.785 74.187 10.165C74.681 10.5323 75.0103 11.1087 75.175 11.894H74.89C75.118 11.1847 75.5233 10.6273 76.106 10.222C76.7013 9.804 77.3917 9.595 78.177 9.595C78.8737 9.595 79.4437 9.728 79.887 9.994C80.343 10.26 80.685 10.6653 80.913 11.21C81.141 11.742 81.255 12.4197 81.255 13.243V19H79.716V13.319C79.716 12.4703 79.5703 11.8497 79.279 11.457C78.9877 11.0517 78.4937 10.849 77.797 10.849C77.303 10.849 76.866 10.9693 76.486 11.21C76.1187 11.4507 75.8337 11.7927 75.631 12.236C75.441 12.6667 75.346 13.1797 75.346 13.775V19H73.807V13.319C73.807 12.4703 73.655 11.8497 73.351 11.457C73.0597 11.0517 72.572 10.849 71.888 10.849C71.3813 10.849 70.9443 10.9693 70.577 11.21C70.2097 11.4507 69.9247 11.7927 69.722 12.236C69.532 12.6667 69.437 13.1797 69.437 13.775V19H67.898ZM88.2935 19.171C87.3181 19.171 86.4758 18.981 85.7665 18.601C85.0698 18.2083 84.5251 17.6573 84.1325 16.948C83.7525 16.2387 83.5625 15.39 83.5625 14.402C83.5625 13.4393 83.7525 12.6033 84.1325 11.894C84.5125 11.172 85.0318 10.6083 85.6905 10.203C86.3618 9.79767 87.1345 9.595 88.0085 9.595C88.8445 9.595 89.5601 9.77867 90.1555 10.146C90.7508 10.5133 91.2068 11.0327 91.5235 11.704C91.8528 12.3753 92.0175 13.1797 92.0175 14.117V14.706H84.7405V13.699H90.9915L90.6875 13.946C90.6875 12.9327 90.4595 12.1473 90.0035 11.59C89.5601 11.02 88.9078 10.735 88.0465 10.735C87.4005 10.735 86.8495 10.887 86.3935 11.191C85.9501 11.4823 85.6145 11.894 85.3865 12.426C85.1585 12.9453 85.0445 13.5533 85.0445 14.25V14.364C85.0445 15.1367 85.1648 15.789 85.4055 16.321C85.6588 16.853 86.0325 17.2583 86.5265 17.537C87.0205 17.803 87.6095 17.936 88.2935 17.936C88.8381 17.936 89.3638 17.8537 89.8705 17.689C90.3898 17.5117 90.8775 17.2267 91.3335 16.834L91.8655 17.917C91.4475 18.297 90.9155 18.601 90.2695 18.829C89.6235 19.057 88.9648 19.171 88.2935 19.171ZM94.7388 19V10.963H92.9148V9.766H95.1568L94.7388 10.165V9.443C94.7388 8.21433 95.0428 7.28333 95.6508 6.65C96.2714 6.01667 97.2214 5.662 98.5008 5.586L99.2418 5.548L99.3748 6.726L98.5008 6.783C97.9814 6.821 97.5571 6.935 97.2278 7.125C96.8984 7.315 96.6578 7.58733 96.5058 7.942C96.3538 8.29667 96.2778 8.73367 96.2778 9.253V10.051L96.0498 9.766H98.9378V10.963H96.2778V19H94.7388ZM101.506 22.42L103.235 18.525V19.19L99.188 9.766H100.86L104.166 17.86H103.653L106.997 9.766H108.612L103.121 22.42H101.506Z" fill="black"/>
</svg>
